# xmcd
#
# Track frame offsets: 
#        150
#        20924
#        43177
#        69044
#        93710
#        113617
#        137915
#        166310
#        186623
#        209695
#        231311
#        254305
#
# Disc length: 3703 seconds
#
# Revision: 0
# Processed by: cddbd v1.5.2PL0 Copyright (c) Steve Scherf et al.
# Submitted via: ExactAudioCopy v0.99pb5
#
DISCID=b50e750c
DTITLE=Quoc Dai - Ngoc Ha
DYEAR=2010
DGENRE=Vietnamese
TTITLE0=Ngoc Ha
TTITLE1=Yeu Em Thuo Ban Dau
TTITLE2=Dinh Menh
TTITLE3=Nguoi Nha Que
TTITLE4=Nho Nguoi Yeu
TTITLE5=Thanh Pho Buon
TTITLE6=Do Qua Ben Song
TTITLE7=Em Hay Ve Di
TTITLE8=Ngay Khong Em
TTITLE9=Co Hang Xom
TTITLE10=Lang Im
TTITLE11=Nguoi Nha Que (New Version)
EXTD=
EXTT0=
EXTT1=
EXTT2=
EXTT3=
EXTT4=
EXTT5=
EXTT6=
EXTT7=
EXTT8=
EXTT9=
EXTT10=
EXTT11=
PLAYORDER=
